<svg xmlns="http://www.w3.org/2000/svg" xmlns:xlink="http://www.w3.org/1999/xlink" width="500" zoomAndPan="magnify" viewBox="0 0 375 374.999991" height="500" preserveAspectRatio="xMidYMid meet" version="1.0"><defs><clipPath id="5a257abca9"><path d="M 37.5 12.574219 L 337.5 12.574219 L 337.5 362.074219 L 37.5 362.074219 Z M 37.5 12.574219 " clip-rule="nonzero"/></clipPath></defs><g clip-path="url(#5a257abca9)"><path fill="#ffffff" d="M 312.445312 137.519531 L 287.457031 137.519531 L 287.457031 112.53125 C 287.457031 57.328125 242.703125 12.574219 187.5 12.574219 C 132.296875 12.574219 87.542969 57.328125 87.542969 112.53125 L 87.542969 137.519531 L 62.554688 137.519531 C 48.757812 137.519531 37.5625 148.714844 37.5625 162.507812 L 37.5625 337.433594 C 37.5625 351.230469 48.757812 362.425781 62.554688 362.425781 L 312.445312 362.425781 C 326.242188 362.425781 337.4375 351.230469 337.4375 337.433594 L 337.4375 162.507812 C 337.4375 148.714844 326.242188 137.519531 312.445312 137.519531 Z M 125.027344 112.53125 C 125.027344 78.070312 153.066406 50.058594 187.5 50.058594 C 221.960938 50.058594 249.972656 78.070312 249.972656 112.53125 L 249.972656 137.519531 L 125.027344 137.519531 Z M 162.511719 324.941406 L 99.289062 261.71875 L 125.777344 235.203125 L 162.511719 271.9375 L 249.222656 185.222656 L 275.710938 211.738281 Z M 162.511719 324.941406 " fill-opacity="1" fill-rule="nonzero"/></g></svg>