<svg xmlns="http://www.w3.org/2000/svg" xmlns:xlink="http://www.w3.org/1999/xlink" width="529" zoomAndPan="magnify" viewBox="0 0 396.75 396.749984" height="529" preserveAspectRatio="xMidYMid meet" version="1.0"><defs><clipPath id="b7d10c3753"><path d="M 10.039062 10.039062 L 386.210938 10.039062 L 386.210938 386.210938 L 10.039062 386.210938 Z M 10.039062 10.039062 " clip-rule="nonzero"/></clipPath></defs><g clip-path="url(#b7d10c3753)"><path fill="#0d0d19" d="M 386.46875 198.253906 C 386.46875 200.203125 386.433594 202.148438 386.371094 204.085938 C 386.273438 207.304688 386.09375 210.503906 385.832031 213.683594 C 379.871094 287.28125 331.554688 348.902344 265.296875 374.167969 C 257.28125 377.226562 249.003906 379.753906 240.503906 381.703125 C 226.921875 384.820312 212.78125 386.46875 198.253906 386.46875 C 94.304688 386.46875 10.039062 302.199219 10.039062 198.253906 C 10.039062 94.304688 94.304688 10.039062 198.253906 10.039062 C 302.199219 10.039062 386.46875 94.304688 386.46875 198.253906 " fill-opacity="1" fill-rule="nonzero"/></g><path fill="#cfe1fe" d="M 173.664062 282.449219 L 173.625 282.414062 L 173.585938 282.449219 L 81.648438 190.4375 L 109.570312 162.515625 L 173.625 226.570312 L 286.140625 114.050781 L 314.066406 141.972656 L 173.664062 282.449219 " fill-opacity="1" fill-rule="nonzero"/><path fill="#0d0d19" d="M 265.296875 374.167969 L 173.585938 282.453125 L 173.585938 282.449219 L 173.625 282.414062 L 173.664062 282.449219 L 295.183594 160.867188 L 314.105469 141.945312 L 385.832031 213.683594 C 379.871094 287.28125 331.554688 348.902344 265.296875 374.167969 " fill-opacity="1" fill-rule="nonzero"/><path fill="#0d0d19" d="M 173.664062 282.449219 L 173.625 282.414062 L 173.585938 282.449219 L 295.183594 160.867188 L 173.664062 282.449219 " fill-opacity="1" fill-rule="nonzero"/></svg>