<svg xmlns="http://www.w3.org/2000/svg" xmlns:xlink="http://www.w3.org/1999/xlink" width="500" zoomAndPan="magnify" viewBox="0 0 375 374.999991" height="500" preserveAspectRatio="xMidYMid meet" version="1.0"><defs><clipPath id="d7dfc5d5ee"><path d="M 27.765625 27.765625 L 348.015625 27.765625 L 348.015625 348.015625 L 27.765625 348.015625 Z M 27.765625 27.765625 " clip-rule="nonzero"/></clipPath></defs><g clip-path="url(#d7dfc5d5ee)"><path fill="#00bf15" d="M 348.015625 187.890625 C 348.015625 276.324219 276.324219 348.015625 187.890625 348.015625 C 99.457031 348.015625 27.765625 276.324219 27.765625 187.890625 C 27.765625 99.457031 99.457031 27.765625 187.890625 27.765625 C 276.324219 27.765625 348.015625 99.457031 348.015625 187.890625 Z M 137.929688 211.414062 L 105.507812 178.992188 C 105.042969 178.527344 104.554688 178.085938 104.046875 177.667969 C 103.535156 177.25 103.007812 176.859375 102.460938 176.492188 C 101.914062 176.125 101.347656 175.789062 100.769531 175.476562 C 100.1875 175.167969 99.59375 174.886719 98.984375 174.632812 C 98.375 174.382812 97.757812 174.160156 97.125 173.96875 C 96.496094 173.777344 95.859375 173.617188 95.210938 173.492188 C 94.566406 173.363281 93.914062 173.265625 93.261719 173.199219 C 92.605469 173.136719 91.949219 173.105469 91.289062 173.105469 C 90.628906 173.105469 89.972656 173.136719 89.316406 173.199219 C 88.664062 173.265625 88.011719 173.363281 87.367188 173.492188 C 86.71875 173.617188 86.082031 173.777344 85.453125 173.96875 C 84.820312 174.160156 84.203125 174.382812 83.59375 174.632812 C 82.984375 174.886719 82.390625 175.167969 81.808594 175.476562 C 81.230469 175.789062 80.664062 176.125 80.117188 176.492188 C 79.570312 176.859375 79.042969 177.25 78.53125 177.667969 C 78.023438 178.085938 77.535156 178.527344 77.070312 178.992188 C 76.605469 179.457031 76.160156 179.945312 75.742188 180.453125 C 75.324219 180.964844 74.933594 181.492188 74.566406 182.039062 C 74.203125 182.585938 73.863281 183.152344 73.550781 183.730469 C 73.242188 184.3125 72.960938 184.90625 72.707031 185.515625 C 72.457031 186.125 72.234375 186.742188 72.042969 187.375 C 71.851562 188.003906 71.691406 188.640625 71.5625 189.289062 C 71.433594 189.933594 71.335938 190.585938 71.273438 191.242188 C 71.207031 191.894531 71.175781 192.554688 71.175781 193.210938 C 71.175781 193.871094 71.207031 194.527344 71.273438 195.183594 C 71.335938 195.839844 71.433594 196.488281 71.5625 197.136719 C 71.691406 197.78125 71.851562 198.417969 72.042969 199.050781 C 72.234375 199.679688 72.457031 200.300781 72.707031 200.90625 C 72.960938 201.515625 73.242188 202.109375 73.550781 202.691406 C 73.863281 203.273438 74.203125 203.835938 74.566406 204.382812 C 74.933594 204.933594 75.324219 205.460938 75.742188 205.96875 C 76.160156 206.476562 76.605469 206.964844 77.070312 207.429688 L 123.710938 254.078125 L 137.929688 268.296875 C 138.394531 268.761719 138.882812 269.207031 139.394531 269.621094 C 139.902344 270.039062 140.429688 270.433594 140.980469 270.796875 C 141.527344 271.164062 142.089844 271.503906 142.671875 271.8125 C 143.253906 272.125 143.847656 272.40625 144.457031 272.65625 C 145.066406 272.910156 145.683594 273.128906 146.3125 273.320312 C 146.945312 273.511719 147.582031 273.671875 148.230469 273.800781 C 148.875 273.929688 149.527344 274.027344 150.179688 274.089844 C 150.835938 274.15625 151.492188 274.1875 152.152344 274.1875 C 152.8125 274.1875 153.46875 274.15625 154.125 274.089844 C 154.78125 274.027344 155.429688 273.929688 156.078125 273.800781 C 156.722656 273.671875 157.359375 273.511719 157.992188 273.320312 C 158.621094 273.128906 159.242188 272.910156 159.847656 272.65625 C 160.457031 272.40625 161.054688 272.125 161.632812 271.8125 C 162.214844 271.503906 162.777344 271.164062 163.328125 270.796875 C 163.875 270.433594 164.402344 270.039062 164.914062 269.621094 C 165.421875 269.207031 165.910156 268.761719 166.375 268.296875 L 180.59375 254.078125 L 298.726562 135.917969 C 299.195312 135.453125 299.636719 134.964844 300.054688 134.457031 C 300.472656 133.949219 300.863281 133.421875 301.230469 132.871094 C 301.597656 132.324219 301.933594 131.761719 302.246094 131.179688 C 302.554688 130.597656 302.835938 130.003906 303.089844 129.394531 C 303.34375 128.789062 303.5625 128.167969 303.753906 127.539062 C 303.945312 126.90625 304.105469 126.269531 304.234375 125.625 C 304.363281 124.976562 304.460938 124.328125 304.523438 123.671875 C 304.589844 123.015625 304.621094 122.359375 304.621094 121.699219 C 304.621094 121.042969 304.589844 120.382812 304.523438 119.730469 C 304.460938 119.074219 304.363281 118.421875 304.234375 117.777344 C 304.105469 117.128906 303.945312 116.492188 303.753906 115.863281 C 303.5625 115.230469 303.34375 114.613281 303.089844 114.003906 C 302.835938 113.394531 302.554688 112.800781 302.246094 112.21875 C 301.933594 111.640625 301.597656 111.074219 301.230469 110.527344 C 300.863281 109.980469 300.472656 109.453125 300.054688 108.941406 C 299.636719 108.433594 299.195312 107.945312 298.726562 107.480469 C 298.261719 107.015625 297.773438 106.574219 297.265625 106.15625 C 296.757812 105.738281 296.226562 105.347656 295.679688 104.980469 C 295.132812 104.613281 294.570312 104.277344 293.988281 103.964844 C 293.40625 103.65625 292.8125 103.375 292.203125 103.121094 C 291.59375 102.871094 290.976562 102.648438 290.347656 102.457031 C 289.714844 102.265625 289.078125 102.105469 288.433594 101.980469 C 287.785156 101.851562 287.136719 101.753906 286.480469 101.6875 C 285.824219 101.625 285.167969 101.59375 284.507812 101.59375 C 283.851562 101.59375 283.191406 101.625 282.539062 101.6875 C 281.882812 101.753906 281.230469 101.851562 280.585938 101.980469 C 279.941406 102.105469 279.300781 102.265625 278.671875 102.457031 C 278.042969 102.648438 277.421875 102.871094 276.8125 103.121094 C 276.207031 103.375 275.609375 103.65625 275.03125 103.964844 C 274.449219 104.277344 273.882812 104.613281 273.335938 104.980469 C 272.789062 105.347656 272.261719 105.738281 271.753906 106.15625 C 271.242188 106.574219 270.753906 107.015625 270.289062 107.480469 L 166.355469 211.414062 C 165.890625 211.878906 165.402344 212.320312 164.894531 212.738281 C 164.382812 213.15625 163.855469 213.546875 163.308594 213.910156 C 162.761719 214.277344 162.195312 214.613281 161.617188 214.925781 C 161.035156 215.234375 160.441406 215.515625 159.832031 215.765625 C 159.226562 216.019531 158.605469 216.238281 157.976562 216.429688 C 157.347656 216.621094 156.707031 216.78125 156.0625 216.910156 C 155.417969 217.035156 154.769531 217.132812 154.113281 217.199219 C 153.457031 217.261719 152.800781 217.292969 152.144531 217.292969 C 151.484375 217.292969 150.828125 217.261719 150.171875 217.199219 C 149.519531 217.132812 148.867188 217.035156 148.222656 216.910156 C 147.578125 216.78125 146.941406 216.621094 146.308594 216.429688 C 145.679688 216.238281 145.0625 216.019531 144.453125 215.765625 C 143.84375 215.515625 143.25 215.234375 142.667969 214.925781 C 142.089844 214.613281 141.523438 214.277344 140.976562 213.910156 C 140.429688 213.546875 139.902344 213.15625 139.394531 212.738281 C 138.882812 212.320312 138.394531 211.878906 137.929688 211.414062 Z M 137.929688 211.414062 " fill-opacity="1" fill-rule="nonzero"/></g></svg>