<svg xmlns="http://www.w3.org/2000/svg" xmlns:xlink="http://www.w3.org/1999/xlink" width="500" zoomAndPan="magnify" viewBox="0 0 375 374.999991" height="500" preserveAspectRatio="xMidYMid meet" version="1.0"><defs><clipPath id="f2756b50e3"><path d="M 37.5 12.574219 L 337.5 12.574219 L 337.5 362.074219 L 37.5 362.074219 Z M 37.5 12.574219 " clip-rule="nonzero"/></clipPath></defs><g clip-path="url(#f2756b50e3)"><path fill="#000000" d="M 312.445312 137.394531 L 287.457031 137.394531 L 287.457031 112.429688 C 287.457031 57.285156 242.703125 12.574219 187.5 12.574219 C 132.296875 12.574219 87.542969 57.285156 87.542969 112.429688 L 87.542969 137.394531 L 62.554688 137.394531 C 48.757812 137.394531 37.5625 148.578125 37.5625 162.359375 L 37.5625 337.109375 C 37.5625 350.890625 48.757812 362.074219 62.554688 362.074219 L 312.445312 362.074219 C 326.242188 362.074219 337.4375 350.890625 337.4375 337.109375 L 337.4375 162.359375 C 337.4375 148.578125 326.242188 137.394531 312.445312 137.394531 Z M 125.027344 112.429688 C 125.027344 78.003906 153.066406 50.019531 187.5 50.019531 C 221.960938 50.019531 249.972656 78.003906 249.972656 112.429688 L 249.972656 137.394531 L 125.027344 137.394531 Z M 162.511719 324.625 L 99.289062 261.464844 L 125.777344 234.980469 L 162.511719 271.675781 L 249.222656 185.050781 L 275.710938 211.539062 Z M 162.511719 324.625 " fill-opacity="1" fill-rule="nonzero"/></g></svg>